<?xml version="1.0" encoding="UTF-8" standalone="no"?>
<!-- Created with Inkscape (http://www.inkscape.org/) -->

<svg
   width="77.8759mm"
   height="12.264252mm"
   viewBox="0 0 77.8759 12.264252"
   version="1.1"
   id="svg1"
   inkscape:version="1.4.2 (ebf0e940, 2025-05-08)"
   sodipodi:docname="ridesheet_name.svg"
   xmlns:inkscape="http://www.inkscape.org/namespaces/inkscape"
   xmlns:sodipodi="http://sodipodi.sourceforge.net/DTD/sodipodi-0.dtd"
   xmlns="http://www.w3.org/2000/svg"
   xmlns:svg="http://www.w3.org/2000/svg">
  <sodipodi:namedview
     id="namedview1"
     pagecolor="#ffffff"
     bordercolor="#666666"
     borderopacity="1.0"
     inkscape:showpageshadow="2"
     inkscape:pageopacity="0.0"
     inkscape:pagecheckerboard="0"
     inkscape:deskcolor="#d1d1d1"
     inkscape:document-units="mm"
     inkscape:zoom="2.4635031"
     inkscape:cx="148.163"
     inkscape:cy="77.125943"
     inkscape:window-width="2096"
     inkscape:window-height="1205"
     inkscape:window-x="0"
     inkscape:window-y="30"
     inkscape:window-maximized="0"
     inkscape:current-layer="layer1" />
  <defs
     id="defs1" />
  <g
     inkscape:label="Layer 1"
     inkscape:groupmode="layer"
     id="layer1"
     transform="translate(-9.4709578,-7.1426066)">
    <g
       id="g1"
       transform="matrix(0.28842927,0,0,0.28842927,4.2052033,-53.046926)">
      <polygon
         class="cls-1"
         points="279.82,195.44 285,195.44 285,189.87 279.82,189.87 279.82,179.34 272.6,179.34 272.6,220.13 279.82,220.13 "
         id="polygon1"
         style="fill:#ffffff"
         transform="translate(3.2566579,30.130387)" />
      <path
         class="cls-2"
         d="m 45.766658,230.75039 a 14.37,14.37 0 0 0 -3,-18.69 c -2.2,-1.6 -5.84,-2.59 -12.18,-2.59 h -12.33 v 40.79 h 8.21 v -33.57 h 4.79 a 10.85,10.85 0 0 1 5.79,1.27 7,7 0 0 1 3,5.9 7.62,7.62 0 0 1 -2.59,6 c -1.71,1.32 -4.63,1.49 -7.33,1.49 h -1.6 l 11,19 h 8.6 l -9.09,-15.22 a 10.68,10.68 0 0 0 6.73,-4.38 z"
         id="path4"
         style="fill:#ffffff" />
      <polygon
         class="cls-2"
         points="56.73,220.13 56.73,189.87 49.51,193.43 49.51,220.13 "
         id="polygon4"
         style="fill:#ffffff"
         transform="translate(3.2566579,30.130387)" />
      <path
         class="cls-2"
         d="m 90.856658,219.50039 v 4.41 c -1.1,-1.76 -4.35,-4.85 -10.14,-4.85 -8.22,0 -15.22,6.23 -15.22,16 0,8.82 6,16.1 15.33,16.1 6.17,0 9,-3 10.36,-5.29 v 4.35 h 6.890003 v -40.75 h -7.220003 z m -2.15,22.16 a 9.45,9.45 0 0 1 -6.72,2.76 9,9 0 0 1 -9.26,-9.29 v -0.05 a 9,9 0 0 1 9.31,-9.26 9.2,9.2 0 0 1 6.56,2.64 9.59,9.59 0 0 1 0.11,13.23 z"
         id="path5"
         style="fill:#ffffff" />
      <path
         class="cls-2"
         d="m 119.25666,219.06039 a 16.070094,16.070094 0 0 0 0.11,32.14 15,15 0 0 0 8.66,-2.65 17.11,17.11 0 0 0 6.12,-7.6 h -7.44 a 7.8,7.8 0 0 1 -7.28,4.08 c -4.14,0 -8.44,-2.65 -8.77,-7.5 h 24.37 a 16.32,16.32 0 0 0 -4.47,-13.84 15.45,15.45 0 0 0 -11.3,-4.63 z m -8.49,13 c 0.28,-3 3.2,-6.84 8.55,-6.84 5.35,0 8.32,4 8.6,6.84 z"
         id="path6"
         style="fill:#ffffff" />
      <path
         class="cls-1"
         d="m 156.51666,226.89039 c -6.89,-2.87 -9.1,-3.64 -9,-6.67 a 4.75,4.75 0 0 1 5,-4.63 c 4,0 4.74,3.14 5.07,5 h 8.1 c -0.33,-9 -7.49,-11.91 -12.9,-11.91 -6.61,0 -13.51,4.24 -13.51,12.07 0,7.83 7.12,10.25 10.2,11.36 5.68,2.26 8.6,3.14 8.6,6.61 a 5.51,5.51 0 0 1 -5.56,5.4 c -1.77,0 -5.46,-1 -5.74,-6.56 h -8.16 c -0.05,7.89 4.74,13.45 14,13.45 9.59,0 13.61,-6.11 13.61,-12.67 0.03,-5.77 -3.48,-8.75 -9.71,-11.45 z"
         id="path7"
         style="fill:#ffffff" />
      <path
         class="cls-1"
         d="m 187.49666,219.06039 c -3.58,-0.05 -7.22,1.32 -8.93,4.52 v -14.11 h -7.22 v 40.79 h 7.22 v -16.92 a 8.79,8.79 0 0 1 1.27,-4.85 6.21,6.21 0 0 1 5.57,-2.65 6,6 0 0 1 5.23,2.37 10,10 0 0 1 1.38,5.74 v 16.31 h 7.24 v -16.65 c 0,-4.07 -0.55,-7.66 -2.37,-10.3 -1.82,-2.64 -4.7,-4.25 -9.39,-4.25 z"
         id="path8"
         style="fill:#ffffff" />
      <path
         class="cls-1"
         d="m 220.25666,219.06039 a 16.070094,16.070094 0 0 0 0.11,32.14 14.93,14.93 0 0 0 8.65,-2.65 17,17 0 0 0 6.12,-7.6 h -7.44 a 7.8,7.8 0 0 1 -7.28,4.08 c -4.13,0 -8.43,-2.65 -8.76,-7.5 h 24.36 a 16.34,16.34 0 0 0 -4.46,-13.84 15.45,15.45 0 0 0 -11.3,-4.63 z m -8.49,13 c 0.27,-3 3.2,-6.84 8.54,-6.84 5.34,0 8.33,4 8.6,6.84 z"
         id="path9"
         style="fill:#ffffff" />
      <path
         class="cls-1"
         d="m 255.46666,219.06039 a 16.070094,16.070094 0 0 0 0.11,32.14 15,15 0 0 0 8.66,-2.65 17,17 0 0 0 6.12,-7.6 h -7.44 a 7.8,7.8 0 0 1 -7.28,4.08 c -4.14,0 -8.44,-2.65 -8.77,-7.5 h 24.39 a 16.32,16.32 0 0 0 -4.47,-13.84 15.45,15.45 0 0 0 -11.32,-4.63 z m -8.49,13 c 0.28,-3 3.2,-6.84 8.55,-6.84 5.35,0 8.32,4 8.6,6.84 z"
         id="path10"
         style="fill:#ffffff" />
      <rect
         class="cls-1"
         x="52.766647"
         y="209.47038"
         width="7.2199998"
         height="6.4499998"
         id="rect17"
         style="fill:#ffffff" />
    </g>
  </g>
</svg>
